# xmcd
#
# Track frame offsets:
#	150
#	12817
#	25886
#	36785
#	50099
#	61064
#	72788
#	84337
#	97336
#	109948
#	121577
#	133824
#	146564
#	158181
#	169360
#	182105
#	194852
#	208396
#	220973
#	231072
#	243373
#	253858
#	265566
#	276573
#
# Disc length: 3865 seconds
#
# Revision: 0
# Processed by: cddbd v1.5.2PL0 Copyright (c) Steve Scherf et al.
# Submitted via: EasyCDDAExtractor 10.0.1.1
#
DISCID=700f1718
DTITLE=Bill Nettles and The Dixie Blue Boys - Bill Nettles and The Dixie Blue Boys
DTITLE=Various Artist - Hadacol Boogie
DYEAR=1900
DGENRE=Classic Country
TTITLE0=Hadacol Boogie
TTITLE1=Life's Road Of Sorrow
TTITLE2=You Can't Hen Peck Me - Vocal Danny Dedman
TTITLE3=Why Don't You Haul Odd And Love Me
TTITLE4=High Falutin' Mama
TTITLE5=The Blues Keep Hangin' On - Vocal Danny Dedman
TTITLE6=You're Breakin' My Broken Heart Again
TTITLE7=I Hauled Off And Loved Her
TTITLE8=Gin Drinkin' Mama
TTITLE9=Do Right Daddy
TTITLE10=Push And Pull Boogie
TTITLE11=Somebody's Darlin - Vocal Danny Dedman
TTITLE12=Long Road To Travel
TTITLE13=Hungry
TTITLE14=Hoochie Coochie Woogie - Vocal Danny Dedman
TTITLE15=I'm Footloose Now (And Free To Run)
TTITLE16=Hadcol Bounce
TTITLE17=Sweet Little Sweetie Pie - Vocal Danny Dedman
TTITLE18=When You're Own Love Ain't Around
TTITLE19=The Same Thing Could Happen To You
TTITLE20=Hula Hule Woogie - Vocal Danny Dedman
TTITLE21=Ain't No Tellin' What A Woman Will Do
TTITLE22=When I Pick Another Wife
TTITLE23=Too Many Blues
EXTD=
EXTT0=
EXTT1=
EXTT2=
EXTT3=
EXTT4=
EXTT5=
EXTT6=
EXTT7=
EXTT8=
EXTT9=
EXTT10=
EXTT11=
EXTT12=
EXTT13=
EXTT14=
EXTT15=
EXTT16=
EXTT17=
EXTT18=
EXTT19=
EXTT20=
EXTT21=
EXTT22=
EXTT23=
PLAYORDER=
